<?xml version="1.0" encoding="UTF-8"?>
<!DOCTYPE svg PUBLIC "-//W3C//DTD SVG 1.1//EN" "http://www.w3.org/Graphics/SVG/1.1/DTD/svg11.dtd">
<!-- Creator: CorelDRAW 2020 (64-Bit) -->
<svg xmlns="http://www.w3.org/2000/svg" xml:space="preserve" width="11.3452mm" height="3.8946mm" version="1.1" style="shape-rendering:geometricPrecision; text-rendering:geometricPrecision; image-rendering:optimizeQuality; fill-rule:evenodd; clip-rule:evenodd"
viewBox="0 0 1134.52 389.46"
 xmlns:xlink="http://www.w3.org/1999/xlink"
 xmlns:xodm="http://www.corel.com/coreldraw/odm/2003">
 <defs>
  <style type="text/css">
   <![CDATA[
    .fil1 {fill:#0089DA}
    .fil0 {fill:black;fill-rule:nonzero}
   ]]>
  </style>
 </defs>
 <g id="Слой_x0020_1">
  <metadata id="CorelCorpID_0Corel-Layer"/>
  <g id="_881352672">
   <path class="fil0" d="M526.41 263.61l-49.12 0c-3.72,0 -6.96,-3.31 -6.96,-7.08l0 -124.88c0,-3.56 3.34,-7.1 7.06,-7.1l49.57 0c21.59,0 38.55,6.18 50.82,18.62 12.32,12.52 18.44,29.54 18.44,51 0,21.46 -6.22,38.38 -18.64,50.8 -12.15,12.42 -29.22,18.64 -51.17,18.64zm-20.89 -105.38l0 71.71 22.57 0c10.17,0 17.94,-3.46 23.34,-10.36 5.53,-7.03 8.29,-15.57 8.29,-25.59 0,-9.92 -2.76,-18.39 -8.29,-25.41 -5.4,-6.9 -13.17,-10.35 -23.34,-10.35l-22.57 0zm218.44 105.38c-7.38,0 -14.77,0 -22.15,0 -3.3,0 -8.21,-3.25 -9.21,-6.95l-5.87 -18.46 -44.21 0 -5.94 18.21c-1.31,4.01 -5.68,7.2 -9.31,7.2 -7.42,0 -14.83,0 -22.23,0 -3.59,0 -5.88,-3.44 -4.55,-7.06 15.22,-41.63 30.43,-83.28 45.65,-124.94 1.31,-3.58 6.2,-7.06 9.75,-7.06 6.24,0 12.48,0 18.72,0 3.54,0 8.04,3.34 9.4,7.16 14.81,41.58 29.6,83.17 44.39,124.76 1.31,3.68 -0.92,7.14 -4.44,7.14l0 0zm-72.61 -55.89l26.91 0 -13.18 -41.21 -13.73 41.21 0 0zm200.74 55.89c-8.73,0 -17.47,0 -26.2,0 -3.58,0 -8.92,-3.5 -10.79,-7.04l-20.74 -39.05 -13.73 0c0,12.99 0,25.98 0,38.97 0,3.66 -3.48,7.12 -6.99,7.12 -7.04,0 -14.1,0 -21.14,0 -3.52,0 -7.06,-3.52 -7.06,-7.04 0,-41.67 0,-83.35 0,-125 0,-3.5 3.54,-7.02 7,-7.02l50.96 0c16.68,0 29.36,4.38 38.01,13.18 8.66,8.65 12.98,19.62 12.98,32.92 0,9.04 -2.15,17.22 -6.49,24.57 -4.34,7.32 -10.64,12.95 -18.9,16.83 8.65,14.82 17.3,29.63 25.96,44.46 2.17,3.7 0.7,7.1 -2.86,7.1l-0.01 0zm-49.08 -106.88l-22.38 0 0 30.1 21.07 0c7.02,0.39 11.91,-2.07 14.67,-7.33 2.77,-5.27 2.77,-10.51 0,-15.71 -2.76,-5.21 -7.2,-7.57 -13.36,-7.06l0 0zm152.12 -32.18c9.04,0 18.1,0 27.14,0 3.56,0 5.18,3.54 3.3,7.1l-44.99 85.29c0,13.2 0,26.42 0,39.63 0,3.52 -3.5,7.04 -7.06,7.04 -6.93,0 -13.89,0 -20.83,0 -3.7,0 -7.12,-3.52 -7.12,-7.08l0 -39.59c-14.81,-28.41 -29.62,-56.83 -44.45,-85.27 -1.82,-3.5 -0.21,-7.12 3.35,-7.12 9.09,0 18.17,0 27.23,0 3.58,0 8.7,3.5 10.34,7.08l21.05 46.18c7.22,-15.41 14.46,-30.81 21.7,-46.22 1.64,-3.48 6.82,-7.04 10.34,-7.04l0 0zm156.12 120.63c-13.79,13.79 -31.04,20.68 -51.74,20.68 -20.71,0 -38.08,-6.89 -52.13,-20.68 -13.79,-13.81 -20.71,-30.81 -20.71,-51.01 0,-20.19 6.98,-37.25 20.89,-51.18 13.93,-13.92 31.18,-20.89 51.76,-20.89 20.69,0 38.01,6.97 51.93,20.89 13.93,13.93 20.88,30.99 20.88,51.18 0,20.07 -6.95,37.07 -20.88,51.01l0 0zm-51.93 -14.12c10.27,0 18.95,-3.52 25.96,-10.54 7.02,-7.03 10.54,-15.87 10.54,-26.53 -0.24,-10.8 -3.89,-19.64 -10.9,-26.54 -7.04,-7.01 -15.57,-10.53 -25.6,-10.53 -10.17,0 -18.76,3.58 -25.78,10.72 -7.03,7.04 -10.53,15.81 -10.53,26.35 0,10.66 3.5,19.5 10.53,26.54 7.02,7.01 15.61,10.53 25.78,10.53l0 0z"/>
   <path class="fil1" d="M36.87 51.86l216.79 0c78.58,0 142.88,64.3 142.88,142.89l0 0c0,78.58 -64.3,142.86 -142.88,142.86l-216.79 0c-18.96,0 -34.49,-15.51 -34.49,-34.47l0 -216.78c0,-18.97 15.53,-34.5 34.49,-34.5l0 0zm51.4 72.61l164.42 0c38.28,0 69.58,31.3 69.58,69.56l0 0c0,38.28 -31.32,69.58 -69.58,69.58l-65.73 0c-1.96,0 -3.74,0.49 -5.3,1.68l-44.27 33.49c-2.76,2.11 -6.32,2.27 -9.43,0.69 -3.11,-1.57 -5.08,-4.52 -5.08,-7.99l0 -7.33c0,-9.72 -9.24,-20.6 -20.17,-20.6 -4.7,0 -9.41,0 -14.11,0 -11.71,0 -20.65,-8.98 -20.65,-20.46l0 -98.04c0,-11.33 9,-20.58 20.32,-20.58l0 0z"/>
  </g>
 </g>
</svg>
